<?xml version="1.0" standalone="no"?>
<!DOCTYPE svg PUBLIC "-//W3C//DTD SVG 20010904//EN"
 "http://www.w3.org/TR/2001/REC-SVG-20010904/DTD/svg10.dtd">
<svg version="1.0" xmlns="http://www.w3.org/2000/svg"
 width="208.000000pt" height="144.000000pt" viewBox="0 0 208.000000 144.000000"
 preserveAspectRatio="xMidYMid meet">

<g transform="translate(0.000000,144.000000) scale(0.100000,-0.100000)"
fill="#0A0F62" stroke="none">
<path d="M81 1374 c-55 -46 -74 -108 -52 -166 5 -13 73 -111 151 -218 145
-198 170 -239 170 -285 0 -45 -24 -87 -165 -280 -76 -105 -145 -207 -152 -228
-21 -60 5 -134 60 -167 31 -19 55 -20 747 -20 682 0 716 1 746 19 18 11 121
142 250 317 l219 299 0 61 0 62 -222 294 c-122 162 -232 303 -244 314 -20 18
-46 19 -749 22 l-728 2 -31 -26z m1585 -277 c-3 -13 -15 -45 -27 -71 -18 -41
-22 -45 -32 -32 -10 14 -25 4 -103 -76 -52 -52 -94 -105 -98 -120 -7 -31 -36
-44 -65 -29 -25 14 -308 15 -316 1 -3 -5 -14 -10 -23 -10 -10 0 -67 -49 -127
-110 -101 -101 -108 -111 -97 -132 6 -13 15 -39 20 -58 l8 -35 320 0 319 0 3
213 2 212 25 0 25 0 -2 -232 -3 -233 -350 -3 -350 -2 -42 -42 c-35 -34 -50
-42 -91 -46 -27 -2 -66 1 -87 8 -37 12 -37 12 -91 -41 -46 -45 -55 -51 -69
-39 -14 12 -10 19 39 69 l55 56 -16 45 c-28 77 4 157 78 195 l29 15 2 183 3
182 413 3 412 2 0 -25 0 -25 -395 0 -395 0 0 -158 0 -158 51 -13 51 -13 109
108 c74 74 109 116 109 131 0 27 43 42 71 24 24 -14 295 -15 304 -1 3 6 14 10
23 10 10 0 60 42 111 94 78 78 92 97 82 109 -10 12 -1 19 51 40 35 14 65 26
67 27 2 0 1 -10 -3 -23z m-256 -527 l0 -100 -25 0 -25 0 0 100 0 100 25 0 25
0 0 -100z m-180 -20 c0 -79 0 -80 -25 -80 -24 0 -25 2 -25 73 0 79 3 87 32 87
16 0 18 -9 18 -80z m-180 -15 c0 -63 -1 -65 -25 -65 -24 0 -25 2 -25 65 0 63
1 65 25 65 24 0 25 -2 25 -65z m270 0 c0 -63 -1 -65 -25 -65 -24 0 -25 2 -25
65 0 63 1 65 25 65 24 0 25 -2 25 -65z m-180 -10 c0 -52 -1 -55 -25 -55 -24 0
-25 3 -25 55 0 52 1 55 25 55 24 0 25 -3 25 -55z m-182 -12 c3 -40 1 -43 -22
-43 -24 0 -26 3 -26 46 0 41 2 45 23 42 18 -2 23 -10 25 -45z"/>
<path d="M577 539 c-25 -14 -47 -63 -47 -102 0 -70 75 -120 146 -97 55 19 89
90 68 144 -9 22 -24 20 -24 -4 0 -11 -11 -27 -25 -36 -24 -16 -27 -16 -46 2
-26 24 -21 56 14 72 15 7 25 17 22 23 -8 12 -85 11 -108 -2z"/>
</g>
</svg>
