<?xml version="1.0" standalone="no"?>
<!DOCTYPE svg PUBLIC "-//W3C//DTD SVG 20010904//EN"
 "http://www.w3.org/TR/2001/REC-SVG-20010904/DTD/svg10.dtd">
<svg version="1.0" xmlns="http://www.w3.org/2000/svg"
 width="331.000000pt" height="222.000000pt" viewBox="0 0 331.000000 222.000000"
 preserveAspectRatio="xMidYMid meet">

<g transform="translate(0.000000,222.000000) scale(0.100000,-0.100000)"
fill="#000000" stroke="none">
<path d="M242 2129 c-99 -49 -149 -175 -108 -273 7 -18 106 -158 218 -312 113
-153 214 -295 224 -314 27 -50 27 -200 0 -250 -10 -19 -110 -161 -222 -316
-112 -154 -208 -293 -214 -308 -28 -73 -2 -184 56 -238 65 -61 4 -58 1157 -58
l1053 0 51 26 c48 24 70 50 363 450 171 233 322 443 336 467 33 58 33 145 0
204 -13 23 -167 232 -342 464 -220 290 -331 430 -358 448 l-40 26 -1065 3
-1066 2 -43 -21z m1515 -230 c56 -27 108 -89 122 -144 14 -54 14 -165 1 -199
-5 -14 -23 -34 -41 -45 -28 -17 -86 -88 -77 -96 1 -1 38 -17 81 -35 103 -43
117 -64 117 -177 l0 -83 -300 0 -300 0 0 78 c0 113 16 138 116 180 43 18 80
35 82 37 10 9 -42 77 -70 91 -46 24 -62 73 -55 172 5 64 12 94 31 126 27 47
82 93 124 106 51 16 124 11 169 -11z m-417 -274 l54 -55 -54 -55 c-30 -30 -60
-55 -67 -55 -25 0 -26 31 -2 56 l23 25 -64 -3 -65 -3 -3 -232 -2 -233 -25 0
-25 0 0 240 c0 286 -2 280 103 280 35 0 67 3 70 7 4 3 -2 17 -14 29 -22 24
-20 54 4 54 7 0 37 -25 67 -55z m777 -57 c22 -21 23 -27 23 -191 l0 -170 23
21 c27 25 40 27 55 9 9 -10 -2 -27 -48 -72 l-59 -58 -55 55 c-31 31 -56 59
-56 63 0 4 8 14 18 21 14 11 21 9 45 -14 l28 -26 -3 164 -3 165 -72 3 c-70 3
-73 4 -73 27 0 24 2 25 77 25 65 0 80 -3 100 -22z m76 -533 c13 -40 11 -39 47
-20 l33 17 65 -66 66 -65 -17 -35 c-18 -38 -16 -40 26 -50 l27 -6 0 -94 0 -94
-36 -12 c-19 -7 -34 -15 -32 -18 35 -68 37 -58 -34 -129 l-65 -65 -31 16 c-41
21 -40 21 -48 -19 l-6 -35 -98 0 -98 0 -6 35 c-8 39 -16 42 -52 18 -25 -16
-26 -16 -90 48 -35 35 -64 69 -64 77 0 7 7 23 16 36 15 23 14 24 -20 36 l-36
12 0 93 0 93 36 12 c34 12 35 13 20 36 -9 13 -16 29 -16 36 0 8 29 42 64 77
64 64 65 64 90 48 36 -24 44 -21 52 18 l6 36 96 -3 95 -3 10 -30z m-809 -31
c3 -9 6 -157 6 -330 l0 -314 -255 0 -255 0 0 330 0 330 249 0 c218 0 250 -2
255 -16z m156 -189 c11 -13 8 -21 -15 -45 l-29 -30 97 0 c97 0 97 0 97 -25 0
-25 0 -25 -97 -25 l-97 0 29 -30 c27 -29 28 -31 12 -47 -16 -16 -20 -14 -72
37 -30 30 -55 59 -55 64 0 11 100 116 111 116 4 0 12 -7 19 -15z"/>
<path d="M1600 1859 c-32 -13 -78 -56 -96 -91 -20 -39 -18 -78 4 -78 37 1 97
20 123 40 l29 20 37 -24 c21 -14 61 -28 91 -32 l52 -7 -6 34 c-14 70 -44 107
-107 134 -41 17 -90 19 -127 4z"/>
<path d="M1625 1665 c-16 -7 -38 -16 -47 -19 -14 -4 -18 -17 -18 -61 0 -93 33
-135 105 -135 27 0 44 8 66 29 26 27 29 36 29 95 0 63 -1 67 -27 76 -16 6 -36
15 -45 20 -22 12 -26 12 -63 -5z"/>
<path d="M1497 1623 c-11 -10 -8 -51 3 -58 6 -4 10 8 10 29 0 37 -2 41 -13 29z"/>
<path d="M1810 1595 c0 -19 4 -35 9 -35 12 0 19 29 13 53 -7 30 -22 18 -22
-18z"/>
<path d="M1620 1392 c0 -9 35 -62 41 -62 8 0 39 46 39 57 0 5 -18 8 -40 8 -22
0 -40 -1 -40 -3z"/>
<path d="M1554 1349 c-9 -15 16 -89 30 -89 33 1 38 17 17 59 -22 42 -34 50
-47 30z"/>
<path d="M1726 1323 c-26 -37 -22 -63 10 -63 17 0 22 9 30 58 8 53 -7 55 -40
5z"/>
<path d="M1458 1314 c-36 -19 -48 -43 -48 -98 l0 -46 250 0 250 0 0 53 c0 43
-5 58 -22 74 -43 40 -58 34 -83 -35 -13 -35 -26 -66 -29 -70 -4 -3 -31 6 -62
21 l-55 27 -43 -25 c-23 -14 -49 -25 -57 -25 -8 0 -24 26 -37 65 -13 36 -27
67 -30 69 -4 2 -19 -2 -34 -10z"/>
<path d="M2026 986 c-16 -38 -58 -58 -79 -37 -19 19 -42 12 -76 -25 -34 -35
-34 -36 -17 -65 21 -36 8 -66 -35 -81 -27 -9 -29 -13 -29 -63 0 -50 2 -54 30
-64 39 -13 52 -47 33 -85 -14 -27 -13 -30 18 -62 34 -35 57 -42 76 -23 21 21
63 1 79 -36 14 -33 17 -35 65 -35 47 0 51 2 61 30 14 42 40 54 82 39 32 -12
35 -10 70 24 36 36 36 37 21 67 -19 38 -7 67 36 82 27 9 29 13 29 63 0 50 -2
54 -29 63 -42 15 -55 44 -37 80 15 28 14 30 -25 68 -35 34 -42 37 -60 26 -34
-22 -77 -6 -87 31 -8 30 -11 32 -60 35 -50 3 -52 2 -66 -32z m129 -81 c36 -8
95 -64 116 -110 37 -80 15 -171 -54 -232 -128 -113 -327 -20 -327 152 0 94 68
178 158 195 36 7 53 6 107 -5z"/>
<path d="M2030 853 c-8 -3 -26 -15 -38 -27 -73 -65 -69 -165 8 -230 26 -22 41
-26 90 -26 52 0 64 4 95 31 79 70 65 197 -27 245 -27 14 -99 18 -128 7z m131
-72 c39 -40 40 -89 1 -132 -41 -45 -103 -45 -144 0 -39 43 -38 92 1 132 41 41
101 41 142 0z"/>
<path d="M2052 748 c-7 -7 -12 -21 -12 -33 0 -29 19 -45 52 -45 25 0 48 23 48
49 0 33 -63 54 -88 29z"/>
<path d="M942 962 c-9 -7 -12 -69 -10 -278 l3 -269 198 -3 197 -2 0 280 0 280
-187 0 c-104 0 -194 -4 -201 -8z m342 -57 c15 -40 0 -45 -150 -45 -119 0 -146
3 -150 15 -16 40 -1 45 150 45 119 0 145 -3 150 -15z m-254 -121 c0 -21 -4
-25 -22 -22 -15 2 -24 11 -26 26 -3 18 1 22 22 22 21 0 26 -5 26 -26z m260 14
c-1 -34 -16 -39 -111 -36 -89 3 -94 4 -97 26 -3 22 -2 22 102 22 78 0 106 -3
106 -12z m-5 -98 c3 -11 3 -24 0 -30 -4 -6 -64 -10 -151 -10 -119 0 -146 3
-150 15 -16 41 -1 45 150 45 136 0 145 -1 151 -20z m-1 -95 c15 -40 0 -45
-150 -45 -151 0 -166 5 -150 45 8 22 291 22 300 0z m-99 -120 c0 -19 -8 -20
-102 -23 l-103 -3 0 26 0 26 103 -3 c94 -3 102 -4 102 -23z m99 16 c10 -16 -5
-41 -24 -41 -23 0 -34 16 -26 35 6 16 42 20 50 6z"/>
</g>
</svg>
