<?xml version="1.0" standalone="no"?>
<!DOCTYPE svg PUBLIC "-//W3C//DTD SVG 20010904//EN"
 "http://www.w3.org/TR/2001/REC-SVG-20010904/DTD/svg10.dtd">
<svg version="1.0" xmlns="http://www.w3.org/2000/svg"
 width="207.000000pt" height="141.000000pt" viewBox="0 0 207.000000 141.000000"
 preserveAspectRatio="xMidYMid meet">

<g transform="translate(0.000000,141.000000) scale(0.100000,-0.100000)"
fill="#333FFF" stroke="none">
<path d="M73 1380 c-54 -33 -81 -91 -69 -153 4 -20 67 -117 166 -252 213 -292
213 -246 -7 -556 -61 -85 -120 -171 -132 -190 -40 -65 -21 -154 42 -197 l34
-22 726 2 725 3 27 25 c45 42 436 577 452 620 13 33 14 47 4 80 -13 45 -385
548 -456 618 l-44 42 -718 0 c-694 0 -719 -1 -750 -20z m1445 -322 c17 -17 17
-589 0 -606 -8 -8 -65 -12 -190 -12 l-178 0 0 -36 c0 -46 14 -70 50 -89 17 -9
30 -20 30 -25 0 -12 -337 -14 -344 -1 -3 4 11 19 32 32 33 21 37 29 40 72 l3
47 -180 0 c-168 0 -181 1 -191 19 -14 27 -14 565 0 592 10 18 26 19 463 19
339 0 456 -3 465 -12z"/>
<path d="M640 760 l0 -240 420 0 420 0 0 240 0 240 -420 0 -420 0 0 -240z
m380 115 c0 -45 -15 -60 -27 -28 -5 13 -15 7 -49 -32 -46 -54 -35 -54 -111 1
-22 16 -25 15 -77 -30 -30 -25 -57 -46 -60 -46 -20 0 2 32 53 78 l59 52 46
-34 45 -35 35 44 c34 40 34 43 15 48 -33 9 -12 27 32 27 l39 0 0 -45z m303 31
c18 -7 40 -22 50 -34 18 -20 18 -21 -36 -61 -29 -23 -57 -41 -60 -41 -4 0 -7
34 -7 75 0 45 4 75 10 75 6 0 25 -6 43 -14z m-71 -76 c4 -71 9 -85 41 -134 20
-31 37 -60 37 -65 0 -29 -106 -28 -151 2 -96 64 -87 206 15 257 23 11 44 20
47 20 4 0 9 -36 11 -80z m167 -42 c12 -57 -19 -143 -56 -155 -11 -4 -83 98
-83 115 1 14 115 90 124 82 4 -4 11 -23 15 -42z m-415 6 c13 -5 16 -23 16 -95
l0 -89 -35 0 -35 0 0 88 c0 104 6 114 54 96z m-166 -106 l3 -78 -31 0 -30 0 0
81 0 80 28 -3 c27 -3 27 -4 30 -80z m90 -15 l3 -63 -36 0 -35 0 0 59 c0 61 7
72 45 68 17 -2 20 -10 23 -64z m-172 3 c10 -41 -4 -66 -37 -66 -28 0 -29 2
-29 45 0 43 1 45 30 45 23 0 31 -5 36 -24z"/>
</g>
</svg>
