<?xml version="1.0" standalone="no"?>
<!DOCTYPE svg PUBLIC "-//W3C//DTD SVG 20010904//EN"
 "http://www.w3.org/TR/2001/REC-SVG-20010904/DTD/svg10.dtd">
<svg version="1.0" xmlns="http://www.w3.org/2000/svg"
 width="206.000000pt" height="145.000000pt" viewBox="0 0 206.000000 145.000000"
 preserveAspectRatio="xMidYMid meet">

<g transform="translate(0.000000,145.000000) scale(0.100000,-0.100000)"
fill="#333FFF" stroke="none">
<path d="M66 1404 c-57 -39 -81 -113 -57 -176 5 -14 75 -113 155 -223 87 -118
150 -213 156 -236 17 -64 -2 -105 -125 -276 -183 -253 -186 -258 -192 -300 -7
-53 19 -107 66 -139 l36 -24 715 0 c681 0 716 1 746 19 25 15 326 415 448 595
27 40 34 94 17 138 -10 26 -355 497 -377 514 -8 6 -14 16 -14 23 0 6 -7 14
-15 17 -8 4 -15 12 -15 19 0 7 -21 27 -47 44 l-46 31 -706 0 -706 0 -39 -26z
m1434 -514 l0 -300 -51 0 c-43 0 -54 -4 -75 -29 -60 -71 -185 -101 -274 -65
-38 15 -42 15 -60 -1 -10 -9 -17 -22 -14 -29 7 -17 -167 -183 -200 -192 -53
-13 -105 38 -92 91 8 32 180 210 194 201 5 -3 15 1 22 9 11 13 -11 15 -179 15
l-191 0 0 300 0 300 460 0 460 0 0 -300z"/>
<path d="M617 1153 c-4 -3 -7 -24 -7 -45 l0 -38 430 0 430 0 0 45 0 45 -423 0
c-233 0 -427 -3 -430 -7z m53 -38 c0 -8 -7 -15 -15 -15 -8 0 -15 7 -15 15 0 8
7 15 15 15 8 0 15 -7 15 -15z m60 0 c0 -8 -7 -15 -15 -15 -8 0 -15 7 -15 15 0
8 7 15 15 15 8 0 15 -7 15 -15z m60 0 c0 -8 -7 -15 -15 -15 -8 0 -15 7 -15 15
0 8 7 15 15 15 8 0 15 -7 15 -15z"/>
<path d="M617 1033 c-4 -3 -7 -96 -7 -205 l0 -198 175 0 175 0 -10 26 c-6 14
-10 45 -10 70 l0 44 -150 0 -150 0 0 120 c0 99 3 120 15 120 11 0 15 -20 17
-102 2 -70 7 -103 16 -106 8 -2 12 10 12 42 0 33 4 46 14 46 10 0 16 -13 18
-42 2 -23 9 -43 16 -46 9 -3 12 13 12 57 0 48 3 61 15 61 12 0 15 -13 15 -60
0 -47 3 -60 15 -60 12 0 15 15 15 75 0 60 3 75 15 75 12 0 15 -15 15 -75 0
-60 3 -75 15 -75 12 0 15 17 15 90 0 73 3 90 15 90 12 0 15 -17 15 -89 0 -78
2 -89 18 -93 14 -4 22 3 31 29 54 147 255 198 387 98 71 -55 110 -170 86 -258
-10 -35 -9 -37 14 -37 l24 0 0 205 0 205 -423 0 c-233 0 -427 -3 -430 -7z"/>
<path d="M1119 936 c-114 -41 -175 -164 -138 -277 29 -86 118 -149 210 -149
61 0 139 40 173 89 68 98 60 200 -23 282 -65 65 -141 84 -222 55z m134 -25
c39 -15 97 -71 112 -109 52 -123 -39 -262 -172 -262 -116 0 -193 77 -193 193
0 127 136 222 253 178z"/>
<path d="M1130 879 c-90 -38 -129 -153 -77 -230 69 -103 197 -106 270 -8 46
62 27 165 -38 215 -40 30 -113 41 -155 23z m160 -94 c0 -13 -16 -15 -102 -13
-70 2 -103 7 -106 16 -3 9 22 12 102 12 89 0 106 -3 106 -15z m-172 -57 c-3
-7 -11 -13 -18 -13 -7 0 -15 6 -17 13 -3 7 4 12 17 12 13 0 20 -5 18 -12z m60
0 c-3 -7 -11 -13 -18 -13 -7 0 -15 6 -17 13 -3 7 4 12 17 12 13 0 20 -5 18
-12z m52 -4 c0 -9 -5 -14 -12 -12 -18 6 -21 28 -4 28 9 0 16 -7 16 -16z m60 1
c0 -8 -7 -15 -15 -15 -8 0 -15 7 -15 15 0 8 7 15 15 15 8 0 15 -7 15 -15z m0
-55 c0 -19 -7 -20 -99 -20 -56 0 -103 4 -106 10 -14 23 11 30 106 30 92 0 99
-1 99 -20z"/>
<path d="M977 552 c-16 -18 -16 -20 1 -35 18 -16 20 -16 35 1 16 18 16 20 -1
35 -18 16 -20 16 -35 -1z"/>
<path d="M914 517 c-9 -24 50 -82 65 -63 8 9 2 21 -24 46 -29 28 -35 31 -41
17z"/>
<path d="M817 422 c-31 -32 -57 -65 -57 -75 0 -9 11 -24 24 -32 31 -20 44 -14
110 54 l50 51 -29 30 c-16 16 -31 30 -35 30 -3 0 -31 -26 -63 -58z m3 -78 c0
-9 -5 -14 -12 -12 -18 6 -21 28 -4 28 9 0 16 -7 16 -16z"/>
</g>
</svg>
