<?xml version="1.0" standalone="no"?>
<!DOCTYPE svg PUBLIC "-//W3C//DTD SVG 20010904//EN"
 "http://www.w3.org/TR/2001/REC-SVG-20010904/DTD/svg10.dtd">
<svg version="1.0" xmlns="http://www.w3.org/2000/svg"
 width="206.000000pt" height="141.000000pt" viewBox="0 0 206.000000 141.000000"
 preserveAspectRatio="xMidYMid meet">

<g transform="translate(0.000000,141.000000) scale(0.100000,-0.100000)"
fill="#333FFF" stroke="none">
<path d="M66 1361 c-15 -10 -37 -32 -47 -47 -21 -33 -25 -103 -8 -137 7 -12
77 -111 156 -219 79 -109 149 -212 154 -230 20 -67 5 -98 -153 -315 -83 -115
-156 -222 -161 -239 -15 -48 0 -103 38 -141 l33 -33 739 0 c684 0 740 2 760
18 12 9 119 149 237 311 223 305 238 332 219 395 -15 48 -454 629 -487 644
-21 9 -195 12 -739 12 -681 0 -713 -1 -741 -19z m700 -187 c37 -18 74 -58 74
-80 0 -21 -24 -17 -46 7 -87 96 -244 41 -244 -86 0 -68 53 -130 115 -136 58
-4 75 1 115 37 38 34 60 38 60 9 0 -20 -68 -75 -101 -82 l-29 -5 0 -94 0 -94
46 0 c38 0 45 -3 42 -17 -3 -15 -14 -18 -63 -18 l-60 0 -5 109 -5 110 -28 7
c-108 29 -159 156 -104 259 42 79 150 113 233 74z m627 2 c44 -18 95 -78 103
-121 16 -88 -22 -165 -100 -201 l-51 -23 -5 -108 -5 -108 -53 -3 c-52 -3 -88
11 -76 29 3 5 25 9 50 9 l44 0 0 94 0 94 -29 5 c-62 13 -131 102 -131 172 0
36 30 104 56 127 54 48 133 61 197 34z m-732 -112 c18 -16 29 -15 61 8 14 10
20 10 30 0 9 -9 7 -17 -12 -37 l-23 -25 23 -25 c18 -19 21 -28 12 -37 -9 -9
-18 -6 -37 12 l-25 23 -25 -23 c-20 -19 -28 -21 -37 -12 -10 10 -10 16 0 30
23 32 24 43 8 61 -32 35 -10 57 25 25z m202 -41 c9 -9 -13 -34 -24 -27 -14 8
-11 34 4 34 8 0 17 -3 20 -7z m207 -178 c56 -29 70 -63 70 -167 0 -67 -4 -100
-15 -114 -22 -29 -18 -34 23 -34 54 0 125 -47 153 -102 18 -34 22 -61 23 -133
l1 -90 -320 0 -320 0 0 97 c0 91 2 99 30 140 37 52 97 88 148 88 20 0 37 1 37
3 0 1 -9 20 -20 42 -26 51 -27 155 -2 205 35 70 124 100 192 65z"/>
<path d="M1264 1140 c-11 -4 -32 -22 -47 -39 -97 -115 36 -277 171 -207 93 48
94 188 1 238 -35 19 -90 23 -125 8z m132 -81 c7 -11 -73 -99 -90 -99 -17 0
-56 43 -56 62 0 22 18 23 41 3 15 -15 20 -13 50 15 36 33 44 36 55 19z"/>
<path d="M946 799 c-27 -22 -47 -58 -40 -71 3 -4 26 0 52 7 41 12 54 12 95 0
47 -14 47 -14 47 10 0 33 -53 75 -94 75 -19 0 -45 -9 -60 -21z"/>
<path d="M953 692 c-45 -13 -53 -18 -53 -39 0 -47 28 -93 65 -109 69 -28 135
16 135 92 0 42 -1 43 -42 55 -24 6 -45 12 -48 13 -3 1 -29 -4 -57 -12z"/>
<path d="M800 468 c-57 -39 -72 -69 -78 -152 l-5 -76 127 0 c69 0 126 2 126 6
0 3 -18 49 -40 102 -23 53 -45 107 -50 120 -5 12 -18 22 -28 22 -11 0 -34 -10
-52 -22z"/>
<path d="M925 468 c4 -13 23 -61 43 -106 24 -58 38 -79 43 -70 9 16 79 188 79
194 0 2 -16 4 -35 4 -32 0 -35 -2 -35 -31 0 -24 -4 -30 -17 -27 -11 2 -19 14
-21 31 -3 23 -8 27 -33 27 -27 0 -30 -3 -24 -22z"/>
<path d="M1131 473 c-13 -27 -91 -218 -91 -226 0 -4 57 -7 126 -7 l127 0 -6
71 c-7 81 -28 124 -77 156 -40 28 -66 29 -79 6z"/>
</g>
</svg>
