<?xml version="1.0" standalone="no"?>
<!DOCTYPE svg PUBLIC "-//W3C//DTD SVG 20010904//EN"
 "http://www.w3.org/TR/2001/REC-SVG-20010904/DTD/svg10.dtd">
<svg version="1.0" xmlns="http://www.w3.org/2000/svg"
 width="207.000000pt" height="143.000000pt" viewBox="0 0 207.000000 143.000000"
 preserveAspectRatio="xMidYMid meet">

<g transform="translate(0.000000,143.000000) scale(0.100000,-0.100000)"
fill="#0A0F62" stroke="none">
<path d="M82 1399 c-36 -24 -72 -84 -72 -123 0 -44 17 -73 155 -261 175 -239
175 -239 175 -302 0 -50 -4 -57 -105 -197 -57 -81 -127 -176 -155 -212 -68
-91 -78 -166 -29 -228 46 -58 16 -56 787 -56 l709 0 46 31 c26 17 47 36 47 41
0 6 6 16 13 22 20 16 353 477 382 528 27 46 32 106 14 140 -18 34 -444 591
-469 613 -22 20 -38 20 -744 22 -720 3 -721 3 -754 -18z m1189 -279 c14 -8 19
-21 19 -55 l0 -45 37 0 c64 0 73 -17 73 -147 l0 -113 -25 0 -25 0 0 105 0 105
-30 0 -30 0 0 -105 c0 -98 -1 -105 -20 -105 -19 0 -20 7 -20 165 l0 165 -235
0 -235 0 2 -262 3 -263 123 -3 c114 -2 122 -4 122 -22 0 -18 -7 -20 -70 -20
l-70 0 0 -35 0 -35 70 0 c63 0 70 -2 70 -20 0 -18 -7 -20 -84 -20 -93 0 -96 2
-96 71 l0 39 -45 0 c-34 0 -47 5 -55 19 -6 12 -10 123 -10 290 0 232 2 272 16
285 13 14 51 16 255 16 147 0 248 -4 260 -10z m-91 -140 c0 -19 -7 -20 -159
-20 -153 0 -181 5 -166 30 4 6 70 10 166 10 152 0 159 -1 159 -20z m0 -100 c0
-19 -7 -20 -159 -20 -153 0 -181 5 -166 30 4 6 70 10 166 10 152 0 159 -1 159
-20z m-145 -100 c0 -12 -17 -16 -84 -18 -83 -3 -110 5 -96 28 4 7 37 10 93 8
69 -2 87 -6 87 -18z m321 -95 c43 -18 40 -36 -7 -52 -65 -23 -217 -11 -234 18
-9 14 12 37 38 42 54 11 170 6 203 -8z m-133 -82 c48 -3 88 0 120 10 l47 15 0
-38 c0 -35 -3 -39 -37 -51 -49 -17 -170 -17 -211 0 -28 12 -32 18 -32 53 0 36
1 38 21 28 11 -7 53 -14 92 -17z m27 -88 c52 0 105 4 118 8 20 8 22 5 22 -26
0 -27 -5 -36 -27 -46 -41 -19 -142 -24 -198 -9 -48 13 -50 14 -53 51 -3 37 -2
38 20 30 13 -4 66 -8 118 -8z m0 -90 c47 0 97 3 113 8 26 7 27 6 27 -27 0 -29
-5 -36 -32 -47 -43 -18 -174 -18 -215 0 -28 11 -33 19 -33 47 0 33 1 34 28 27
15 -5 65 -8 112 -8z"/>
</g>
</svg>
