<?xml version="1.0" standalone="no"?>
<!DOCTYPE svg PUBLIC "-//W3C//DTD SVG 20010904//EN"
 "http://www.w3.org/TR/2001/REC-SVG-20010904/DTD/svg10.dtd">
<svg version="1.0" xmlns="http://www.w3.org/2000/svg"
 width="205.000000pt" height="146.000000pt" viewBox="0 0 205.000000 146.000000"
 preserveAspectRatio="xMidYMid meet">

<g transform="translate(0.000000,146.000000) scale(0.100000,-0.100000)"
fill="#0A0F62" stroke="none">
<path d="M68 1415 c-40 -22 -68 -75 -68 -128 0 -52 9 -66 202 -329 122 -165
138 -201 119 -265 -5 -18 -76 -123 -156 -235 -81 -111 -152 -215 -157 -231
-21 -59 7 -132 65 -167 31 -19 56 -20 745 -20 610 0 717 2 742 15 38 19 460
596 474 647 7 25 6 48 -1 71 -15 49 -453 629 -487 645 -21 9 -195 12 -739 12
-601 -1 -716 -3 -739 -15z m984 -275 c22 -24 37 -30 69 -30 l40 0 -3 -57 -3
-58 -145 -3 c-194 -4 -192 -4 -188 61 l3 52 41 3 c30 2 49 11 69 33 38 39 78
39 117 -1z m-262 -45 c0 -11 -13 -15 -52 -15 -29 0 -60 -5 -68 -10 -13 -8 -15
-60 -18 -349 -3 -331 -2 -341 18 -361 19 -19 31 -20 318 -20 253 0 301 2 320
16 l22 15 0 344 c0 264 -3 346 -12 352 -7 4 -38 10 -68 13 -70 6 -67 24 5 28
48 3 58 0 80 -22 l26 -26 -3 -356 c-3 -339 -4 -356 -22 -370 -16 -11 -80 -14
-345 -14 -288 0 -326 2 -343 17 -17 15 -18 40 -18 375 0 419 -5 398 100 398
47 0 60 -3 60 -15z m340 -190 c34 -35 34 -59 0 -37 -17 10 -19 8 -22 -25 -4
-48 -28 -57 -28 -10 0 42 -7 49 -31 34 -34 -21 -33 3 1 38 19 19 37 35 40 35
3 0 21 -16 40 -35z m-252 -4 c1 -1 -2 -10 -8 -20 -7 -14 -7 -22 0 -26 19 -12
1 -22 -37 -19 -49 3 -47 2 -33 19 9 11 10 18 1 28 -6 8 -9 16 -6 19 4 4 72 3
83 -1z m-68 -145 c6 -8 10 -25 8 -38 -2 -19 -9 -23 -38 -23 -29 0 -36 4 -38
23 -4 28 14 52 38 52 10 0 23 -7 30 -14z m310 0 c6 -8 10 -25 8 -38 -2 -18
-10 -24 -35 -26 -28 -3 -33 1 -39 23 -11 45 37 75 66 41z m-102 -28 c-3 -9
-29 -13 -83 -13 -54 0 -80 4 -82 13 -4 9 17 12 82 12 65 0 86 -3 83 -12z
m-114 -135 c52 -52 73 -80 66 -87 -11 -11 -160 129 -160 151 0 25 19 12 94
-64z m291 -3 c5 -8 11 -7 20 0 20 17 40 3 24 -16 -9 -11 -9 -18 -1 -26 20 -20
14 -25 -33 -25 -47 0 -53 5 -33 25 8 8 8 15 0 25 -11 13 -7 27 9 27 4 0 11 -5
14 -10z m-161 -119 c36 -40 -15 -91 -55 -55 -23 21 -24 32 -2 56 21 23 36 23
57 -1z"/>
<path d="M951 1111 c-18 -19 -40 -31 -62 -33 -29 -2 -34 -7 -34 -28 l0 -25
135 0 135 0 3 28 c3 26 1 27 -37 27 -23 0 -41 4 -41 8 0 15 -40 52 -56 52 -9
0 -28 -13 -43 -29z m67 -27 c4 -27 -26 -40 -46 -20 -13 13 -13 18 -2 31 18 21
44 15 48 -11z"/>
<path d="M770 730 c0 -5 5 -10 10 -10 6 0 10 5 10 10 0 6 -4 10 -10 10 -5 0
-10 -4 -10 -10z"/>
<path d="M1080 730 c0 -5 5 -10 10 -10 6 0 10 5 10 10 0 6 -4 10 -10 10 -5 0
-10 -4 -10 -10z"/>
<path d="M995 440 c4 -6 11 -8 16 -5 14 9 11 15 -7 15 -8 0 -12 -5 -9 -10z"/>
</g>
</svg>
