<svg xmlns="http://www.w3.org/2000/svg" xmlns:xlink="http://www.w3.org/1999/xlink" viewBox="0 0 1609.72 549.52"><defs><style>.cls-1,.cls-22,.cls-23,.cls-24{fill:none;stroke:#4d4d4d;stroke-miterlimit:10;stroke-width:2px;}.cls-1{stroke-dasharray:5;}.cls-2{font-size:22.53px;font-family:GandhiSans-Bold, GandhiSans Bold;font-weight:700;}.cls-3{letter-spacing:0em;}.cls-4{letter-spacing:0em;}.cls-5{letter-spacing:-0.01em;}.cls-6{letter-spacing:-0.01em;}.cls-7{letter-spacing:-0.01em;}.cls-8{letter-spacing:0em;}.cls-9{letter-spacing:0.01em;}.cls-10{letter-spacing:0em;}.cls-11{letter-spacing:-0.01em;}.cls-12{letter-spacing:0.01em;}.cls-13{letter-spacing:0em;}.cls-14{letter-spacing:0em;}.cls-15{letter-spacing:-0.07em;}.cls-16{letter-spacing:-0.01em;}.cls-17{letter-spacing:0em;}.cls-18{letter-spacing:-0.03em;}.cls-19{fill:#22b7f1;}.cls-20{fill:#1319fa;}.cls-21{fill:#1c00f8;}.cls-23{stroke-dasharray:4.72 4.72;}.cls-24{stroke-dasharray:5.19 5.19;}.cls-25{fill:#fff;}</style></defs><g id="Capa_2" data-name="Capa 2"><g id="Capa_1-2" data-name="Capa 1"><line class="cls-1" x1="773.5" y1="265.75" x2="1606.74" y2="265.75"/><text class="cls-2" transform="translate(0.13 394.86)">Explo<tspan class="cls-3" x="52.02" y="0">r</tspan><tspan x="59.27" y="0">ación de d</tspan><tspan class="cls-4" x="156.62" y="0">a</tspan><tspan class="cls-5" x="167.38" y="0">t</tspan><tspan x="174.71" y="0">os</tspan><tspan x="0" y="27.03">y p</tspan><tspan class="cls-6" x="28.21" y="27.03">r</tspan><tspan x="35.35" y="27.03">o</tspan><tspan class="cls-7" x="47.71" y="27.03">c</tspan><tspan class="cls-8" x="57.67" y="27.03">esos de negocio</tspan></text><text class="cls-2" transform="translate(566.13 394.86)"><tspan class="cls-9">I</tspan><tspan class="cls-4" x="5.61" y="0">n</tspan><tspan class="cls-7" x="18.02" y="0">t</tspan><tspan class="cls-8" x="25.34" y="0">e</tspan><tspan class="cls-5" x="36.63" y="0">g</tspan><tspan class="cls-3" x="49.09" y="0">r</tspan><tspan class="cls-8" x="56.34" y="0">ación de d</tspan><tspan class="cls-4" x="153.69" y="0">a</tspan><tspan class="cls-7" x="164.46" y="0">t</tspan><tspan x="171.78" y="0">os</tspan><tspan x="0" y="27.03">y desa</tspan><tspan class="cls-10" x="59.16" y="27.03">r</tspan><tspan class="cls-6" x="66.62" y="27.03">r</tspan><tspan x="73.76" y="27.03">ollo</tspan></text><text class="cls-2" transform="translate(869.13 394.86)">Dashboa<tspan class="cls-6" x="83.33" y="0">r</tspan><tspan x="90.47" y="0">ds</tspan><tspan x="0" y="27.03">Di</tspan><tspan class="cls-11" x="20.28" y="27.03">r</tspan><tspan x="27.42" y="27.03">e</tspan><tspan class="cls-12" x="38.7" y="27.03">c</tspan><tspan class="cls-13" x="49.09" y="27.03">ti</tspan><tspan class="cls-11" x="61.82" y="27.03">v</tspan><tspan x="72.43" y="27.03">os</tspan></text><text class="cls-2" transform="translate(1138.13 394.86)"><tspan class="cls-14">A<tspan class="cls-8" x="13.72" y="0">nalíticas</tspan></tspan><tspan x="0" y="27.03">p</tspan><tspan class="cls-11" x="12.82" y="27.03">r</tspan><tspan x="19.96" y="27.03">edi</tspan><tspan class="cls-12" x="49.22" y="27.03">c</tspan><tspan class="cls-13" x="59.61" y="27.03">ti</tspan><tspan class="cls-4" x="72.34" y="27.03">v</tspan><tspan x="83.08" y="27.03">as IA</tspan></text><text class="cls-2" transform="translate(1445.13 394.86)"><tspan class="cls-15">T</tspan><tspan x="9.6" y="0">oma de</tspan><tspan x="0" y="27.03">decisiones</tspan></text><text class="cls-2" transform="translate(279.13 18.86)"><tspan class="cls-14">A</tspan><tspan class="cls-8" x="13.72" y="0">nálisis de d</tspan><tspan class="cls-4" x="117.03" y="0">a</tspan><tspan class="cls-5" x="127.8" y="0">t</tspan><tspan x="135.12" y="0">o</tspan><tspan class="cls-16" x="147.49" y="0">s</tspan><tspan x="156.17" y="0">,</tspan><tspan x="0" y="27.03">dia</tspan><tspan class="cls-5" x="28.84" y="27.03">g</tspan><tspan x="41.29" y="27.03">nósti</tspan><tspan class="cls-5" x="87.81" y="27.03">c</tspan><tspan x="97.77" y="27.03">o y planeación </tspan></text><text class="cls-2" transform="translate(279.13 516.86)"><tspan class="cls-17">G</tspan><tspan x="14.67" y="0">ene</tspan><tspan class="cls-3" x="49.74" y="0">r</tspan><tspan x="57" y="0">ación de d</tspan><tspan class="cls-4" x="154.34" y="0">a</tspan><tspan class="cls-5" x="165.11" y="0">t</tspan><tspan x="172.43" y="0">os</tspan><tspan x="0" y="27.03">I</tspan><tspan class="cls-18" x="5.38" y="27.03">O</tspan><tspan class="cls-8" x="20.34" y="27.03">T</tspan></text><path class="cls-19" d="M491.68,139.94l-44-58.49a15.38,15.38,0,0,0-12.3-6.14H294.15a15.38,15.38,0,0,0-12.41,24.47l28.57,38.95a17.63,17.63,0,0,1,.06,20.76L282.3,198.23a15.38,15.38,0,0,0,12.29,24.62H436.65a15.34,15.34,0,0,0,12.4-6.29l42.74-58.28A15.41,15.41,0,0,0,491.68,139.94Z"/><path class="cls-19" d="M491.68,385.94l-44-58.49a15.38,15.38,0,0,0-12.3-6.14H294.15a15.38,15.38,0,0,0-12.41,24.47l28.57,39a17.63,17.63,0,0,1,.06,20.76L282.3,444.23a15.38,15.38,0,0,0,12.29,24.62H436.65a15.37,15.37,0,0,0,12.4-6.29l42.74-58.29A15.39,15.39,0,0,0,491.68,385.94Z"/><path class="cls-19" d="M1049.16,257.14l-44-58.49a15.38,15.38,0,0,0-12.3-6.14H851.62A15.38,15.38,0,0,0,839.22,217l28.56,39a17.62,17.62,0,0,1,.06,20.76l-28.07,38.74a15.39,15.39,0,0,0,12.3,24.62H994.13a15.37,15.37,0,0,0,12.4-6.29l42.73-58.29A15.38,15.38,0,0,0,1049.16,257.14Z"/><path class="cls-20" d="M1327.89,257.14l-44-58.49a15.34,15.34,0,0,0-12.29-6.14H1130.36A15.37,15.37,0,0,0,1118,217l28.56,39a17.62,17.62,0,0,1,.06,20.76l-28.07,38.74a15.38,15.38,0,0,0,12.3,24.62h142.06a15.39,15.39,0,0,0,12.4-6.29L1328,275.47A15.36,15.36,0,0,0,1327.89,257.14Z"/><path class="cls-19" d="M1606.63,257.14l-44-58.49a15.36,15.36,0,0,0-12.29-6.14H1409.1A15.37,15.37,0,0,0,1396.7,217l28.56,39a17.62,17.62,0,0,1,.06,20.76l-28.07,38.74a15.38,15.38,0,0,0,12.3,24.62h142.06a15.39,15.39,0,0,0,12.4-6.29l42.73-58.29A15.36,15.36,0,0,0,1606.63,257.14Z"/><path class="cls-20" d="M770.42,257.14l-44-58.49a15.38,15.38,0,0,0-12.3-6.14H572.88A15.38,15.38,0,0,0,560.48,217l28.57,39a17.63,17.63,0,0,1,.06,20.76L561,315.43a15.38,15.38,0,0,0,12.29,24.62H715.39a15.37,15.37,0,0,0,12.4-6.29l42.74-58.29A15.39,15.39,0,0,0,770.42,257.14Z"/><path class="cls-20" d="M212.94,257.14l-44-58.49a15.36,15.36,0,0,0-12.29-6.14H15.41A15.38,15.38,0,0,0,3,217l27,36.85a21.21,21.21,0,0,1,.07,25L3.56,315.43a15.38,15.38,0,0,0,12.29,24.62H157.91a15.4,15.4,0,0,0,12.41-6.29l42.73-58.29A15.38,15.38,0,0,0,212.94,257.14Z"/><circle class="cls-19" cx="557.22" cy="207.25" r="9.5"/><circle class="cls-19" cx="557.22" cy="327.25" r="9.5"/><circle class="cls-21" cx="869.22" cy="266.25" r="9.5"/><circle class="cls-19" cx="1148.22" cy="266.25" r="9.5"/><circle class="cls-20" cx="1429.22" cy="266.25" r="9.5"/><line class="cls-22" x1="494.72" y1="148.75" x2="496.57" y2="150.43"/><line class="cls-23" x1="500.05" y1="153.61" x2="547.13" y2="196.48"/><line class="cls-22" x1="548.87" y1="198.07" x2="550.72" y2="199.75"/><line class="cls-22" x1="550.72" y1="333.75" x2="549.03" y2="335.59"/><line class="cls-24" x1="545.52" y1="339.41" x2="498.16" y2="391"/><line class="cls-22" x1="496.41" y1="392.91" x2="494.72" y2="394.75"/><image width="512" height="512" transform="translate(53.72 208.75) scale(0.21)" xlink:href="../blanco.png"/><path class="cls-25" d="M993.09,294.16c-11.49-.05-23,0-34.47,0H956.8c.16,2.34.37,4.57.46,6.82a7,7,0,0,0,4,6.26c1,.55,2,1.18,3,1.79a3.12,3.12,0,0,1,.81.67c.55.77.19,1.48-.77,1.5-1.49,0-3,0-4.45,0H931.17c-.55,0-1.26.17-1.45-.59s.32-1.19.91-1.53c1.27-.76,2.55-1.52,3.81-2.29a6.37,6.37,0,0,0,3.2-5.22c.18-2.41.36-4.83.56-7.4H901.6c-2.57,0-3.7-1.14-3.7-3.73V231.57c0-2.33,1.19-3.55,3.49-3.55q45.84,0,91.69,0c1.9,0,3.24.59,4,2.35v61.47C996.33,293.56,995,294.17,993.09,294.16Zm-.72-59.36H902.61v52.05h89.76Zm-83.61,36.83c0-1.15,0-2.32,0-3.48,0-.87.37-1.34,1.26-1.34h4c.89,0,1.29.47,1.3,1.32q0,3.57,0,7.14a1.15,1.15,0,0,1-1.31,1.3c-1.29,0-2.58,0-3.87,0-1,0-1.32-.4-1.33-1.37,0-1.18,0-2.38,0-3.56ZM927.55,270c0-1.68,0-3.35,0-5,0-1,.35-1.38,1.4-1.39h3.77c1,0,1.36.37,1.36,1.35,0,3.45,0,6.89,0,10.34a1.16,1.16,0,0,1-1.32,1.31c-1.28,0-2.58,0-3.86,0-1,0-1.34-.4-1.35-1.36C927.54,273.46,927.55,271.72,927.55,270Zm-2.89-1.56c0,2.23,0,4.45,0,6.67,0,1.12-.33,1.45-1.43,1.47h-3.68c-1,0-1.37-.34-1.38-1.31q0-6.81,0-13.64c0-1,.37-1.31,1.37-1.32q1.89,0,3.78,0c1,0,1.33.38,1.33,1.36C924.67,263.91,924.66,266.16,924.66,268.42Zm58-17.75-12.23,9.16v-15.7C974.13,243.77,980.48,247.14,982.65,250.67ZM937,266.88v-8.23c0-1.33.32-1.63,1.66-1.64H942c1,0,1.43.37,1.43,1.37q0,8.43,0,16.84c0,1-.38,1.32-1.37,1.34-1.25,0-2.52,0-3.77,0-1,0-1.33-.37-1.34-1.36,0-2.77,0-5.54,0-8.32Zm-6.22-10.27c3-3.44,6-6.84,9.19-10.43-1.4,0-2.54,0-3.69,0-.77,0-1.36-.2-1.43-1.07-.06-.7.5-1.1,1.48-1.1,1.91,0,3.81,0,5.71,0,1.12,0,1.45.32,1.45,1.44,0,2,0,3.93,0,5.9,0,.76-.29,1.31-1.07,1.31s-1.11-.53-1.1-1.3c0-1.06,0-2.11,0-3.42-.46.5-.79.84-1.09,1.19-2.73,3.1-5.45,6.2-8.19,9.29-.86,1-1.23,1-2.26.18-2.76-2.18-5.5-4.38-8.3-6.63-.27.24-.53.45-.78.69-3.15,3-6.3,5.92-9.44,8.89-.24.22-.46.45-.72.65-.52.37-1.14.38-1.44-.16a2.23,2.23,0,0,1,0-1.38c.05-.23.38-.42.6-.62l10.56-10c.94-.88,1.23-.89,2.23-.09l7.41,5.92Zm48.57,17.93-8.15-12.62,12.65-9.47C988.08,258.84,986.77,269.33,979.31,274.54Zm-11.08-29.21v9.26c0,1.93,0,3.87,0,5.81a2.82,2.82,0,0,0,.41,1.42c2.4,3.79,4.85,7.54,7.27,11.31l.88,1.36a15.35,15.35,0,0,1-16.74-.87,15.62,15.62,0,0,1-5.81-17.42C956.22,250,962.07,245.41,968.23,245.33Z"/><image width="512" height="512" transform="translate(340.72 100.75) scale(0.19)" xlink:href="../monitoreo%20white.png"/><image width="512" height="512" transform="translate(617.72 220.75) scale(0.18)" xlink:href="../integracoin.png"/><path class="cls-25" d="M394.56,411.62c.19.89,1.63,1.79,3.88,2.53a39.7,39.7,0,0,0,21.55,0c2.41-.8,3.9-1.77,3.9-2.69h0v-6.57a13.05,13.05,0,0,1-3.25,1.53,41.52,41.52,0,0,1-22.9,0,12.9,12.9,0,0,1-3.21-1.51v6.74Zm-25.27-20.75a1.91,1.91,0,0,1-1.81-2,1.88,1.88,0,0,1,1.79-2h15.44a1.9,1.9,0,0,1,1.81,2,1.88,1.88,0,0,1-1.78,2H369.29Zm44.35-26.94h6.47a4.53,4.53,0,0,1,3.26,1.34,4.64,4.64,0,0,1,1.35,3.26v22h-4v-22a.67.67,0,0,0-.68-.68h-6.45v22.64H409.7V356.59a.65.65,0,0,0-.66-.66H360.41a.66.66,0,0,0-.46.19.7.7,0,0,0-.19.47v54.9a.64.64,0,0,0,.59.68h25.78v4H370.84v7.36a.65.65,0,0,0,.66.65h14.63v3.93H371.52a4.61,4.61,0,0,1-4.6-4.61v-7.36h-6.48a4.53,4.53,0,0,1-3.26-1.34,4.64,4.64,0,0,1-1.35-3.26V356.59a4.59,4.59,0,0,1,4.61-4.62H409a4.59,4.59,0,0,1,4.6,4.61V364Zm-44.35,5.79a1.92,1.92,0,0,1-1.81-2,1.88,1.88,0,0,1,1.78-2h30.87a1.9,1.9,0,0,1,1.8,2,1.88,1.88,0,0,1-1.77,2H369.29Zm0,10.57a2,2,0,0,1,0-3.94h30.87a1.9,1.9,0,0,1,1.8,2,1.86,1.86,0,0,1-1.77,2H369.29Zm29.16,23.78a40,40,0,0,0,21.55,0c2.41-.81,3.9-1.78,3.9-2.7s-1.41-2-3.84-2.77a40,40,0,0,0-21.56,0c-5.11,1.71-5.25,3.71,0,5.47ZM424,424.43a13.19,13.19,0,0,1-3.24,1.54,42,42,0,0,1-22.9,0,13,13,0,0,1-3.21-1.52v6.27c.18.89,1.63,1.78,3.87,2.53a40,40,0,0,0,21.55,0,8.79,8.79,0,0,0,3.49-1.85c.5-.54.42-.89.42-1.54v-5.43Zm-29.4-3.16c.19.89,1.63,1.78,3.87,2.53a40,40,0,0,0,21.55,0c2.41-.81,3.9-1.78,3.9-2.73h0V415a13.19,13.19,0,0,1-3.24,1.54,41.77,41.77,0,0,1-22.9,0,13.18,13.18,0,0,1-3.22-1.52v6.27Z"/><image width="3001" height="3001" transform="translate(1124.72 173.75) scale(0.07)" xlink:href="../%E2%80%94Pngtree%E2%80%94market%20analysis%20icon_3773817.png"/><image width="512" height="512" transform="translate(1447.72 212.75) scale(0.21)" xlink:href="../Toma%20de%20Decisiones%20white.png"/><polyline class="cls-1" points="278.74 211.21 216.03 265.75 278.74 336.75"/><circle class="cls-21" cx="279.22" cy="213.25" r="9.5"/><circle class="cls-21" cx="279.22" cy="337.25" r="9.5"/></g></g></svg>